<svg width="64" height="64" viewBox="0 0 42 42" fill="none" xmlns="http://www.w3.org/2000/svg">
  <defs>
    <linearGradient id="logoBg" x1="2" y1="2" x2="40" y2="40" gradientUnits="userSpaceOnUse">
      <stop offset="0%" stop-color="#3ECEB2"/>
      <stop offset="55%" stop-color="#2CA98F"/>
      <stop offset="100%" stop-color="#7B5FC9"/>
    </linearGradient>
    <linearGradient id="logoBadge" x1="0" y1="0" x2="1" y2="1">
      <stop offset="0%" stop-color="rgba(255,255,255,0.40)"/>
      <stop offset="45%" stop-color="rgba(255,255,255,0.12)"/>
      <stop offset="100%" stop-color="rgba(255,255,255,0.02)"/>
    </linearGradient>
  </defs>
  <rect x="1.5" y="1.5" width="39" height="39" rx="11.5" fill="url(#logoBg)"/>
  <rect x="1.5" y="1.5" width="39" height="39" rx="11.5" fill="url(#logoBadge)"/>
  <rect x="3" y="3" width="36" height="36" rx="9.5" stroke="rgba(255,255,255,0.32)" stroke-width="1.4" fill="none"/>
  <g>
    <!-- Hair -->
    <path d="M16 10.8c-0.2-2.9 2.1-5.4 5-5.5 3.2-0.1 5.6 2.4 5.4 5.5 0 0-1.7-0.9-3.1-1.1-1.6-0.2-5.3 0.2-7.3 1.1Z" fill="#2F2B39"/>
    <!-- Left ear -->
    <circle cx="15.2" cy="13" r="1.1" fill="#E8BA8D"/>
    <!-- Right ear -->
    <circle cx="26.8" cy="13" r="1.1" fill="#E8BA8D"/>
    <!-- Head -->
    <path d="M15.8 12.5c0-3 2.3-5.4 5.2-5.4s5.2 2.4 5.2 5.4c0 2.7-0.9 5-2.6 6.4-1 0.8-1.8 1.1-2.6 1.1s-1.6-0.3-2.6-1.1c-1.7-1.4-2.6-3.7-2.6-6.4Z" fill="#F2C79B"/>
    <!-- Neck -->
    <rect x="19.5" y="16.4" width="3" height="3.4" fill="#E8BA8D"/>
    <!-- Glasses frame -->
    <path d="M16.1 12.5l-1.35 0.35M25.9 12.5l1.35 0.35" stroke="#3ECEB2" stroke-width="0.7" stroke-linecap="round"/>
    <circle cx="18.4" cy="12.5" r="2.25" stroke="#3ECEB2" stroke-width="0.8" fill="rgba(62,206,178,0.08)"/>
    <circle cx="23.6" cy="12.5" r="2.25" stroke="#3ECEB2" stroke-width="0.8" fill="rgba(62,206,178,0.08)"/>
    <path d="M20.65 12.5h0.7" stroke="#3ECEB2" stroke-width="0.8" stroke-linecap="round"/>
    <!-- Eyes -->
    <circle cx="18.4" cy="12.6" r="1.1" fill="white"/>
    <circle cx="23.6" cy="12.6" r="1.1" fill="white"/>
    <circle cx="18.5" cy="12.7" r="0.55" fill="#2F2B39"/>
    <circle cx="23.7" cy="12.7" r="0.55" fill="#2F2B39"/>
    <circle cx="18.7" cy="12.4" r="0.2" fill="white"/>
    <circle cx="23.9" cy="12.4" r="0.2" fill="white"/>
    <!-- Eyebrows -->
    <path d="M17.3 10.2c0.6-0.4 1.3-0.4 1.9 0" stroke="#3A3238" stroke-width="0.65" fill="none" stroke-linecap="round"/>
    <path d="M22.8 10.2c0.6-0.4 1.3-0.4 1.9 0" stroke="#3A3238" stroke-width="0.65" fill="none" stroke-linecap="round"/>
    <!-- Nose -->
    <path d="M19.9 13.8c0.7 0.5 1.4 0.5 2.1 0" stroke="#D9A878" stroke-width="0.7" fill="none" stroke-linecap="round"/>
    <!-- Smile -->
    <path d="M19 16.4c1.3 1.1 2.8 1.1 4 0" stroke="#A9724E" stroke-width="0.8" fill="none" stroke-linecap="round"/>
    <!-- Doctor coat (body) -->
    <path d="M9.3 33V19.6c0-4.2 3.4-7.6 7.7-7.6h8c4.3 0 7.7 3.4 7.7 7.6V33H9.3Z" fill="#F8FBFF" stroke="#DFE7EE" stroke-width="0.7"/>
    <!-- Blue shirt collar -->
    <path d="M16.8 13.4h8.4l-4.2 5.4-4.2-5.4Z" fill="#5B8DEF"/>
    <!-- Violet tie -->
    <path d="M20.4 17.3l0.6 1.7-0.7 4.3h1.4l-0.7-4.3 0.6-1.7Z" fill="#7B5FC9"/>
    <!-- Coat lapels -->
    <path d="M14.2 13.8l4.4 6.7-3.2 1.1-4.3-5 3.1-2.8Z" fill="#E5ECF3"/>
    <path d="M27.8 13.8l-4.4 6.7 3.2 1.1 4.3-5-3.1-2.8Z" fill="#E5ECF3"/>
    <!-- Coat buttons -->
    <circle cx="21" cy="23.6" r="0.55" fill="#B9CBD8"/>
    <circle cx="21" cy="26.6" r="0.55" fill="#B9CBD8"/>
    <circle cx="21" cy="29.6" r="0.55" fill="#B9CBD8"/>
    <!-- Pocket with pen -->
    <rect x="23.6" y="24.8" width="4.2" height="4.6" rx="0.6" fill="none" stroke="#C9D6DF" stroke-width="0.65"/>
    <path d="M25.3 24.8v-1.7l0.5-0.6 0.5 0.6v1.7" stroke="#5B8DEF" stroke-width="0.7" fill="none"/>
    <!-- Green medical aid cross on coat -->
    <path d="M16.4 22.3h1.2v4.3h-1.2zM14.8 23.9h3.6v1.2h-3.6z" fill="#2CA98F"/>
    <!-- Stethoscope eartips -->
    <circle cx="14.1" cy="11.2" r="0.7" fill="#5E6B76"/>
    <circle cx="27.9" cy="11.2" r="0.7" fill="#5E6B76"/>
    <!-- Stethoscope metal earpiece tubes -->
    <path d="M14.4 11.8c-1.1 0.6-1.8 1.7-1.8 3 0 2.2 1.4 4.1 3.2 5.3" stroke="#9AA9B4" stroke-width="1.1" fill="none" stroke-linecap="round"/>
    <path d="M27.6 11.8c1.1 0.6 1.8 1.7 1.8 3 0 2.2-1.4 4.1-3.2 5.3" stroke="#9AA9B4" stroke-width="1.1" fill="none" stroke-linecap="round"/>
    <!-- Stethoscope chrome Y-junction -->
    <rect x="20.15" y="19.4" width="1.7" height="2.4" rx="0.6" fill="#B9C6CE" stroke="#8F9DA8" stroke-width="0.5"/>
    <!-- Stethoscope flexible teal tube -->
    <path d="M20.9 21.8c-2.8 0.7-5 3.1-5 6 0 2.8 2.2 5 5 5 1.3 0 2.5-0.4 3.5-1.2" stroke="#2EC4B0" stroke-width="1.5" fill="none" stroke-linecap="round"/>
    <!-- Stethoscope chest piece (diaphragm) -->
    <path d="M24.4 31.5l1.2-0.9" stroke="#2EC4B0" stroke-width="1.2" stroke-linecap="round"/>
    <circle cx="26" cy="30.8" r="3" fill="#CBD6DE" stroke="#E5EDF3" stroke-width="0.7"/>
    <circle cx="26" cy="30.8" r="2" fill="#2EC4B0"/>
    <circle cx="26" cy="30.8" r="0.8" fill="#1B9F8B"/>
  </g>
</svg>